<svg xmlns="http://www.w3.org/2000/svg" xmlns:xlink="http://www.w3.org/1999/xlink" width="349pt" height="169pt" viewBox="0.00 0.00 349.00 169.00">
<g id="graph0" class="graph" transform="scale(1 1) rotate(0) translate(4 164.95)">
<title>G</title>
<polygon fill="white" stroke="none" points="-4,4 -4,-164.95 345.18,-164.95 345.18,4 -4,4"/>
<!-- n_5 -->
<g id="node1" class="node">
<title>n_5</title>
<ellipse fill="none" stroke="black" cx="311.65" cy="-31.52" rx="25.52" ry="25.52"/>
<ellipse fill="none" stroke="black" cx="311.65" cy="-31.52" rx="29.52" ry="29.52"/>
<text xml:space="preserve" text-anchor="middle" x="311.65" y="-27.32" font-family="Times,serif" font-size="14.00">n_5</text>
</g>
<!-- n_0 -->
<g id="node2" class="node">
<title>n_0</title>
<ellipse fill="none" stroke="black" cx="119.57" cy="-125.52" rx="25.52" ry="25.52"/>
<text xml:space="preserve" text-anchor="middle" x="119.57" y="-121.32" font-family="Times,serif" font-size="14.00">n_0</text>
</g>
<!-- n_1 -->
<g id="node3" class="node">
<title>n_1</title>
<ellipse fill="none" stroke="black" cx="25.52" cy="-125.52" rx="25.52" ry="25.52"/>
<text xml:space="preserve" text-anchor="middle" x="25.52" y="-121.32" font-family="Times,serif" font-size="14.00">n_1</text>
</g>
<!-- n_0&#45;&gt;n_1 -->
<g id="edge1" class="edge">
<title>n_0-&gt;n_1</title>
<path fill="none" stroke="black" d="M96.6,-136.79C90.14,-139.55 82.96,-142.12 76.04,-143.52 70.25,-144.7 64.23,-144.13 58.46,-142.63"/>
<polygon fill="black" stroke="black" points="59.83,-139.41 49.24,-139.32 57.47,-145.99 59.83,-139.41"/>
<text xml:space="preserve" text-anchor="middle" x="72.54" y="-148.35" font-family="Times,serif" font-size="14.00">a</text>
</g>
<!-- n_1&#45;&gt;n_0 -->
<g id="edge2" class="edge">
<title>n_1-&gt;n_0</title>
<path fill="none" stroke="black" d="M51.24,-123.62C57.08,-123.25 63.28,-122.91 69.04,-122.72 73.47,-122.58 78.11,-122.6 82.71,-122.74"/>
<polygon fill="black" stroke="black" points="82.23,-126.22 92.38,-123.19 82.55,-119.23 82.23,-126.22"/>
<text xml:space="preserve" text-anchor="middle" x="72.54" y="-126.92" font-family="Times,serif" font-size="14.00">ε</text>
</g>
<!-- n_3 -->
<g id="node4" class="node">
<title>n_3</title>
<ellipse fill="none" stroke="black" cx="119.57" cy="-31.52" rx="25.52" ry="25.52"/>
<text xml:space="preserve" text-anchor="middle" x="119.57" y="-27.32" font-family="Times,serif" font-size="14.00">n_3</text>
</g>
<!-- n_1&#45;&gt;n_3 -->
<g id="edge3" class="edge">
<title>n_1-&gt;n_3</title>
<path fill="none" stroke="black" d="M43.83,-107.84C57.76,-93.62 77.52,-73.44 93.23,-57.4"/>
<polygon fill="black" stroke="black" points="95.46,-60.12 99.96,-50.52 90.46,-55.22 95.46,-60.12"/>
<text xml:space="preserve" text-anchor="middle" x="72.54" y="-85.54" font-family="Times,serif" font-size="14.00">ε</text>
</g>
<!-- n_4 -->
<g id="node6" class="node">
<title>n_4</title>
<ellipse fill="none" stroke="black" cx="213.61" cy="-31.52" rx="25.52" ry="25.52"/>
<text xml:space="preserve" text-anchor="middle" x="213.61" y="-27.32" font-family="Times,serif" font-size="14.00">n_4</text>
</g>
<!-- n_3&#45;&gt;n_4 -->
<g id="edge6" class="edge">
<title>n_3-&gt;n_4</title>
<path fill="none" stroke="black" d="M145.23,-31.52C154.83,-31.52 166.01,-31.52 176.48,-31.52"/>
<polygon fill="black" stroke="black" points="176.36,-35.02 186.36,-31.52 176.36,-28.02 176.36,-35.02"/>
<text xml:space="preserve" text-anchor="middle" x="166.59" y="-35.72" font-family="Times,serif" font-size="14.00">ε</text>
</g>
<!-- n_2 -->
<g id="node5" class="node">
<title>n_2</title>
<ellipse fill="none" stroke="black" cx="25.52" cy="-25.52" rx="25.52" ry="25.52"/>
<text xml:space="preserve" text-anchor="middle" x="25.52" y="-21.32" font-family="Times,serif" font-size="14.00">n_2</text>
</g>
<!-- n_2&#45;&gt;n_0 -->
<g id="edge4" class="edge">
<title>n_2-&gt;n_0</title>
<path fill="none" stroke="black" d="M49.37,-35.9C58.38,-40.75 68.39,-47.13 76.04,-54.72 86.89,-65.48 96.07,-79.54 103.09,-92.3"/>
<polygon fill="black" stroke="black" points="99.82,-93.58 107.56,-100.82 106.02,-90.34 99.82,-93.58"/>
<text xml:space="preserve" text-anchor="middle" x="72.54" y="-58.92" font-family="Times,serif" font-size="14.00">ε</text>
</g>
<!-- n_2&#45;&gt;n_3 -->
<g id="edge5" class="edge">
<title>n_2-&gt;n_3</title>
<path fill="none" stroke="black" d="M46.94,-11.58C55.76,-7.18 66.28,-4.08 76.04,-6.72 80.16,-7.84 84.29,-9.46 88.27,-11.35"/>
<polygon fill="black" stroke="black" points="86.56,-14.4 97.02,-16.09 89.9,-8.25 86.56,-14.4"/>
<text xml:space="preserve" text-anchor="middle" x="72.54" y="-10.92" font-family="Times,serif" font-size="14.00">ε</text>
</g>
<!-- n_4&#45;&gt;n_5 -->
<g id="edge7" class="edge">
<title>n_4-&gt;n_5</title>
<path fill="none" stroke="black" d="M239.59,-31.52C248.96,-31.52 259.86,-31.52 270.27,-31.52"/>
<polygon fill="black" stroke="black" points="270.2,-35.02 280.2,-31.52 270.2,-28.02 270.2,-35.02"/>
<text xml:space="preserve" text-anchor="middle" x="260.63" y="-35.72" font-family="Times,serif" font-size="14.00">b</text>
</g>
</g>
</svg>